<svg width="31" height="31" viewBox="0 0 31 31" fill="none" xmlns="http://www.w3.org/2000/svg">
<path d="M24.0706 19.0853C23.4555 18.4458 22.7136 18.1039 21.9273 18.1039C21.1474 18.1039 20.3991 18.4394 19.7587 19.0789L17.7549 21.0735C17.5901 20.9848 17.4252 20.9025 17.2667 20.8202C17.0384 20.7062 16.8228 20.5986 16.6389 20.4846C14.762 19.2942 13.0562 17.7429 11.4203 15.7358C10.6276 14.7353 10.095 13.8932 9.70822 13.0384C10.2282 12.5635 10.7101 12.0696 11.1793 11.5948C11.3568 11.4175 11.5344 11.2338 11.7119 11.0565C13.0436 9.72686 13.0436 8.00461 11.7119 6.67493L9.98088 4.94634C9.78431 4.75006 9.5814 4.54744 9.39117 4.34482C9.0107 3.95225 8.61123 3.54701 8.19905 3.16711C7.58397 2.55925 6.84842 2.23633 6.07481 2.23633C5.30121 2.23633 4.55297 2.55925 3.91886 3.16711C3.91252 3.17344 3.91252 3.17344 3.90618 3.17977L1.75023 5.35158C0.938587 6.16205 0.475693 7.14981 0.374237 8.29587C0.222052 10.1448 0.76738 11.867 1.18589 12.9941C2.21313 15.7611 3.74766 18.3255 6.03676 21.0735C8.81413 24.385 12.1558 27 15.9731 28.8426C17.4315 29.5328 19.3782 30.3496 21.5532 30.4889C21.6864 30.4952 21.8259 30.5015 21.9527 30.5015C23.4175 30.5015 24.6476 29.976 25.6115 28.9312C25.6178 28.9186 25.6305 28.9122 25.6368 28.8996C25.9666 28.5007 26.347 28.1398 26.7465 27.7535C27.0192 27.4939 27.2982 27.2217 27.5708 26.9367C28.1986 26.2845 28.5283 25.5247 28.5283 24.7459C28.5283 23.9608 28.1923 23.2073 27.5518 22.5741L24.0706 19.0853ZM26.3407 25.7527C26.3343 25.7527 26.3343 25.759 26.3407 25.7527C26.0934 26.0186 25.8397 26.2592 25.5671 26.5252C25.1549 26.9177 24.7364 27.3293 24.3433 27.7915C23.7028 28.4754 22.9482 28.7983 21.959 28.7983C21.8639 28.7983 21.7625 28.7983 21.6673 28.7919C19.7841 28.6716 18.0339 27.9371 16.7213 27.3103C13.1323 25.5754 9.98088 23.1123 7.36204 19.9907C5.19975 17.3884 3.754 14.9823 2.7965 12.3989C2.20679 10.8223 1.99119 9.59389 2.08631 8.43517C2.14972 7.69435 2.43506 7.08016 2.96137 6.55462L5.12366 4.39548C5.43437 4.10421 5.7641 3.94592 6.08749 3.94592C6.48698 3.94592 6.81037 4.18653 7.01328 4.38914C7.01962 4.39548 7.02596 4.40181 7.03231 4.40814C7.41911 4.76905 7.78689 5.14263 8.17369 5.54153C8.37027 5.74415 8.57317 5.94677 8.77609 6.15572L10.5071 7.8843C11.1793 8.55547 11.1793 9.17599 10.5071 9.84716C10.3233 10.0308 10.1458 10.2144 9.96186 10.3917C9.42921 10.9362 8.92194 11.4428 8.37027 11.9367C8.35758 11.9493 8.3449 11.9557 8.33856 11.9683C7.79323 12.5129 7.89468 13.0447 8.00882 13.4056C8.01516 13.4246 8.0215 13.4436 8.02785 13.4626C8.47806 14.5517 9.11216 15.5775 10.076 16.7995L10.0823 16.8058C11.8324 18.9586 13.6777 20.6366 15.7131 21.9219C15.9731 22.0866 16.2394 22.2195 16.4931 22.3462C16.7213 22.4601 16.9369 22.5678 17.1208 22.6817C17.1462 22.6944 17.1716 22.7134 17.1969 22.7261C17.4125 22.8337 17.6154 22.8844 17.8247 22.8844C18.351 22.8844 18.6807 22.5551 18.7885 22.4475L20.9571 20.282C21.1727 20.0667 21.5152 19.8071 21.9146 19.8071C22.3078 19.8071 22.6312 20.054 22.8277 20.2693C22.8341 20.2757 22.8341 20.2757 22.8404 20.282L26.3343 23.7708C26.9875 24.4167 26.9875 25.0815 26.3407 25.7527Z" fill="black"/>
<path d="M16.5625 7.63613C18.2239 7.91473 19.7331 8.69988 20.9379 9.90292C22.1426 11.106 22.9226 12.6129 23.2079 14.2719C23.2777 14.6898 23.6391 14.981 24.0513 14.981C24.102 14.981 24.1464 14.9747 24.1971 14.9684C24.6664 14.8924 24.9771 14.4492 24.901 13.9806C24.5586 11.9734 23.6074 10.1435 22.1553 8.69355C20.7032 7.24356 18.8707 6.29379 16.8606 5.95187C16.3913 5.87589 15.9538 6.18615 15.8714 6.64837C15.7889 7.11059 16.0933 7.56015 16.5625 7.63613Z" fill="black"/>
<path d="M30.3364 13.7338C29.772 10.4286 28.2121 7.42103 25.8152 5.02761C23.4183 2.63419 20.4063 1.07656 17.0963 0.513032C16.6334 0.430718 16.1959 0.747309 16.1135 1.20953C16.0374 1.67808 16.3481 2.11498 16.8173 2.19729C19.7722 2.69751 22.4672 4.09683 24.6104 6.23065C26.7537 8.3708 28.1487 11.0618 28.6497 14.0124C28.7194 14.4303 29.0809 14.7216 29.493 14.7216C29.5437 14.7216 29.5881 14.7153 29.6389 14.7089C30.1018 14.6393 30.4188 14.1961 30.3364 13.7338Z" fill="black"/>
</svg>
