<svg width="42" height="46" viewBox="0 0 42 46" fill="none" xmlns="http://www.w3.org/2000/svg">
<path d="M23.6305 29.3206C23.4147 29.1546 23.105 29.1931 22.9375 29.409C22.7706 29.6249 22.8101 29.9346 23.0259 30.102C25.9995 32.4048 28.773 35.1309 31.3005 38.2397C31.545 38.4872 31.6789 38.8167 31.6764 39.1679C31.6739 39.5191 31.5366 39.847 31.2891 40.0916C31.0545 40.3237 30.7142 40.4388 30.3324 40.4161C29.9481 40.3938 29.5816 40.2338 29.3287 39.9765C29.3213 39.9691 29.3119 39.9666 29.304 39.9602C29.2738 39.9256 29.2501 39.8866 29.2175 39.8535L24.3388 34.915C24.1472 34.7214 23.835 34.7189 23.6404 34.9111C23.4463 35.1027 23.4448 35.4154 23.6364 35.6095L28.5147 40.548C28.7592 40.7954 28.893 41.1249 28.8905 41.4761C28.8881 41.8273 28.7508 42.1553 28.5033 42.3998C28.2583 42.6418 27.9318 42.7757 27.5836 42.7757C27.5811 42.7757 27.5781 42.7757 27.5752 42.7757C27.224 42.7732 26.8965 42.6359 26.652 42.3884L25.5693 41.2923L20.6911 36.3539C20.4989 36.1602 20.1862 36.1578 19.9926 36.3499C19.7985 36.5416 19.7965 36.8537 19.9882 37.0484L24.8664 41.9868C25.1109 42.2343 25.2447 42.5637 25.2428 42.9149C25.2403 43.2661 25.103 43.5941 24.8555 43.8381C24.6085 44.0826 24.2771 44.2185 23.9274 44.214C23.5762 44.2115 23.2482 44.0742 23.0037 43.8268L17.0418 37.7927C16.8501 37.5986 16.5375 37.5966 16.3433 37.7888C16.1492 37.9804 16.1472 38.2926 16.3389 38.4872L21.5095 43.7216C18.2273 45.3758 12.7998 39.5527 7.88898 33.8026L10.9737 23.8447H13.1006C13.3733 23.8447 13.5945 23.6234 13.5945 23.3508C13.5945 23.0781 13.3733 22.8568 13.1006 22.8568H11.2799L11.6341 21.7128C11.6751 21.5814 11.6588 21.4397 11.5906 21.3206C11.5224 21.2016 11.4073 21.1161 11.2735 21.0855C7.42664 20.1979 4.28861 19.7178 1.39755 19.5745C1.2632 19.5666 1.13082 19.6165 1.03252 19.7099C0.934722 19.8032 0.878906 19.9327 0.878906 20.068V35.3675C0.878906 35.6406 1.10019 35.8614 1.37285 35.8614H6.88726C7.1036 35.8614 7.29526 35.7206 7.35897 35.5137L7.54322 34.9185C12.0707 40.1908 16.6718 45.0157 20.2811 45.0157C20.9706 45.0157 21.6231 44.8364 22.2327 44.4541L22.2998 44.5217C22.7301 44.9569 23.305 45.1985 23.92 45.2024C23.9254 45.2024 23.9303 45.2024 23.9348 45.2024C24.5443 45.2024 25.1173 44.9678 25.549 44.542C25.8967 44.1982 26.1141 43.7606 26.1916 43.2854C26.5858 43.5877 27.061 43.7606 27.5687 43.7635C27.5737 43.764 27.5786 43.764 27.5831 43.764C28.1926 43.764 28.7656 43.5294 29.1973 43.1031C29.6325 42.6729 29.874 42.098 29.8779 41.483C29.8784 41.4351 29.8676 41.3891 29.8651 41.3412C29.9995 41.3714 30.1358 41.3946 30.2746 41.403C30.3235 41.4059 30.3714 41.4074 30.4203 41.4074C31.0219 41.4074 31.5855 41.1881 31.9836 40.7949C32.4188 40.3647 32.6603 39.7897 32.6643 39.1748C32.6682 38.5598 32.4336 37.9814 32.036 37.5813C29.4917 34.4497 26.6638 31.6703 23.6305 29.3206ZM1.8668 34.8735V20.5906C4.42445 20.7521 7.20536 21.1823 10.5326 21.9302L6.52322 34.8735H1.8668Z" fill="black" stroke="black"/>
<path d="M40.9176 19.7102C40.8198 19.6173 40.6874 19.5679 40.5526 19.5749C37.662 19.7181 34.5235 20.1982 30.6771 21.0858C30.5433 21.117 30.4282 21.2019 30.3595 21.321C30.2909 21.44 30.2756 21.5823 30.3161 21.7131L30.6599 22.8235C27.8256 21.769 23.8795 21.1668 20.4619 21.2977C18.5626 21.2977 16.2549 22.6349 14.288 24.8749C12.4471 26.9717 11.435 29.2838 11.6469 30.9089C11.6637 31.0369 11.7294 31.1524 11.8302 31.2325C12.5271 31.7842 13.2636 32.0613 14.047 32.0613C15.3604 32.0613 16.8037 31.2819 18.4061 29.716C19.5283 29.7111 20.8926 28.984 21.4922 28.5721C21.717 28.418 21.7738 28.1102 21.6197 27.885C21.4656 27.6602 21.1578 27.603 20.9331 27.7576C20.164 28.2851 18.9558 28.7914 18.2599 28.7217C18.1127 28.7084 17.9665 28.7593 17.8617 28.8645C15.1124 31.6217 13.6069 31.2942 12.6096 30.5824C12.5464 29.2508 13.476 27.2972 15.0304 25.5264C16.7859 23.5274 18.8669 22.2856 20.4811 22.2851C24.1037 22.1478 28.3097 22.8492 31.0367 24.0401L34.2049 34.2697L32.5522 35.2754C32.319 35.4172 32.2454 35.7209 32.3872 35.9546C32.4801 36.1072 32.6431 36.1912 32.8095 36.1912C32.8969 36.1912 32.9854 36.168 33.0659 36.1191L34.5062 35.2423L34.5902 35.513C34.6544 35.72 34.8456 35.8607 35.0619 35.8607H40.5768C40.85 35.8607 41.0707 35.6399 41.0707 35.3668V20.0683C41.0707 19.933 41.0154 19.8036 40.9176 19.7102ZM40.0829 34.8738H35.4259L31.4171 21.9305C34.7443 21.1822 37.5247 20.7524 40.0829 20.5909V34.8738Z" fill="black" stroke="black"/>
<path d="M15.3076 20.32C15.1772 20.32 15.0472 20.2687 14.9499 20.1669C13.112 18.2405 12.1409 15.919 12.1409 13.4532V5.36978C12.1409 4.68567 12.6279 4.10034 13.2992 3.97834C15.9289 3.5002 18.2218 2.51231 20.1141 1.04233C20.6209 0.648652 21.3297 0.648652 21.836 1.04233C23.7283 2.51181 26.0217 3.4997 28.651 3.97784C29.3223 4.09985 29.8098 4.68517 29.8098 5.36929V13.4527C29.8098 15.7752 28.9375 17.9886 27.2882 19.8528C27.1079 20.0582 26.7952 20.076 26.5907 19.8952C26.3867 19.7144 26.3675 19.4023 26.5483 19.1978C28.036 17.5164 28.8219 15.5297 28.8219 13.4522V5.36978C28.8219 5.16331 28.6757 4.98697 28.4747 4.95042C25.6873 4.44314 23.2497 3.39104 21.2304 1.82325C21.0798 1.70619 20.8704 1.70619 20.7202 1.82325C18.701 3.39153 16.2633 4.44413 13.476 4.95092C13.2745 4.98747 13.1288 5.16381 13.1288 5.37027V13.4537C13.1288 15.6601 14.0055 17.7461 15.6652 19.4853C15.8534 19.6828 15.846 19.9955 15.6489 20.1837C15.5525 20.2746 15.4301 20.32 15.3076 20.32Z" fill="black" stroke="black"/>
<path d="M19.8153 15.6128C19.6642 15.6128 19.5209 15.5432 19.4276 15.4246L17.108 12.4822C16.9391 12.2678 16.9756 11.9576 17.19 11.7887C17.4049 11.6202 17.7146 11.6563 17.8835 11.8707L19.8153 14.3211L24.0662 8.92775C24.2351 8.71388 24.5458 8.67683 24.7597 8.84576C24.9741 9.01469 25.0106 9.32488 24.8417 9.53926L20.2031 15.4246C20.1097 15.5437 19.967 15.6128 19.8153 15.6128Z" fill="black" stroke="black"/>
</svg>
