<svg width="17" height="17" viewBox="0 0 17 17" fill="none" xmlns="http://www.w3.org/2000/svg">
<path d="M4.26293 14.4372H1.26973V4.79821H4.26293V14.4372ZM2.76472 3.48337C1.80759 3.48337 1.03125 2.6906 1.03125 1.73347C1.03125 1.27372 1.21388 0.832809 1.53897 0.507721C1.86406 0.182633 2.30497 0 2.76472 0C3.22446 0 3.66537 0.182633 3.99046 0.507721C4.31555 0.832809 4.49818 1.27372 4.49818 1.73347C4.49818 2.6906 3.72152 3.48337 2.76472 3.48337ZM15.4655 14.4372H12.4788V9.74499C12.4788 8.62673 12.4562 7.19265 10.9225 7.19265C9.36633 7.19265 9.12785 8.40759 9.12785 9.66442V14.4372H6.13787V4.79821H9.00861V6.11306H9.05051C9.45012 5.35573 10.4263 4.55651 11.8826 4.55651C14.9119 4.55651 15.4688 6.55134 15.4688 9.14235V14.4372H15.4655Z" fill="white"/>
</svg>
