<svg width="30" height="31" viewBox="0 0 30 31" fill="none" xmlns="http://www.w3.org/2000/svg">
<path d="M19.8841 19.9169C22.9974 15.0097 22.606 15.622 22.6958 15.494C23.8292 13.8881 24.4283 11.9981 24.4283 10.0281C24.4283 4.8037 20.2076 0.5 14.9997 0.5C9.80875 0.5 5.57115 4.7952 5.57115 10.0281C5.57115 11.9968 6.18281 13.9363 7.35343 15.5639L10.1153 19.9169C7.16241 20.3727 2.14258 21.7311 2.14258 24.7219C2.14258 25.8122 2.85104 27.3659 6.22612 28.5767C8.58281 29.4221 11.6986 29.8877 14.9997 29.8877C21.1726 29.8877 27.8569 28.1387 27.8569 24.7219C27.8569 21.7305 22.8429 20.3736 19.8841 19.9169ZM8.78538 14.6167C8.77595 14.602 8.76612 14.5875 8.75584 14.5733C7.78172 13.2271 7.28544 11.6318 7.28544 10.0281C7.28544 5.72218 10.7372 2.22194 14.9997 2.22194C19.2534 2.22194 22.714 5.72373 22.714 10.0281C22.714 11.6344 22.2271 13.1756 21.3056 14.4863C21.2231 14.5956 21.6539 13.9234 14.9997 24.4114L8.78538 14.6167ZM14.9997 28.1658C8.2572 28.1658 3.85686 26.1751 3.85686 24.7219C3.85686 23.7453 6.1179 22.1393 11.1282 21.5134L14.2769 26.4761C14.4343 26.7242 14.7068 26.8744 14.9996 26.8744C15.2925 26.8744 15.5652 26.7241 15.7225 26.4761L18.8711 21.5134C23.8815 22.1393 26.1426 23.7453 26.1426 24.7219C26.1426 26.1628 21.7819 28.1658 14.9997 28.1658Z" fill="black"/>
<path d="M15.0045 5.72266C12.6413 5.72266 10.7188 7.65381 10.7188 10.0275C10.7188 12.4012 12.6413 14.3324 15.0045 14.3324C17.3676 14.3324 19.2902 12.4012 19.2902 10.0275C19.2902 7.65381 17.3676 5.72266 15.0045 5.72266ZM15.0045 12.6104C13.5866 12.6104 12.433 11.4518 12.433 10.0275C12.433 8.60329 13.5866 7.4446 15.0045 7.4446C16.4223 7.4446 17.5759 8.60329 17.5759 10.0275C17.5759 11.4518 16.4223 12.6104 15.0045 12.6104Z" fill="black"/>
</svg>
