<svg width="17" height="17" viewBox="0 0 17 17" fill="none" xmlns="http://www.w3.org/2000/svg">
<path d="M15.7453 4.47113C15.5654 3.79365 15.0352 3.2601 14.3622 3.07903C13.1421 2.75 8.24997 2.75 8.24997 2.75C8.24997 2.75 3.35783 2.75 2.13778 3.07903C1.46468 3.26013 0.934565 3.79365 0.754641 4.47113C0.427734 5.69909 0.427734 8.26111 0.427734 8.26111C0.427734 8.26111 0.427734 10.8231 0.754641 12.0511C0.934565 12.7286 1.46468 13.2399 2.13778 13.421C3.35783 13.75 8.24997 13.75 8.24997 13.75C8.24997 13.75 13.1421 13.75 14.3622 13.421C15.0352 13.2399 15.5654 12.7286 15.7453 12.0511C16.0722 10.8231 16.0722 8.26111 16.0722 8.26111C16.0722 8.26111 16.0722 5.69909 15.7453 4.47113ZM6.64995 10.5872V5.93499L10.7388 8.26117L6.64995 10.5872Z" fill="white"/>
</svg>
