<svg width="193" height="46" viewBox="0 0 193 46" fill="none" xmlns="http://www.w3.org/2000/svg">
<path d="M11.5427 17.3673C11.7953 17.757 12.0635 18.1531 12.3459 18.5518C13.1676 19.7118 14.047 20.8226 14.9628 21.8778C15.6721 19.9644 17.2613 18.6337 19.6351 18.6337C21.7137 18.6337 23.0604 19.3392 23.9102 21.1026H29.0624C28.0669 15.9886 23.7633 13.8435 19.6351 13.8134C16.6135 13.8134 13.5709 14.9991 11.5427 17.3673Z" fill="black"/>
<path d="M19.6649 26.6642C19.9714 26.9425 20.277 27.2144 20.5817 27.4798H24.0264C23.6499 28.2734 23.2069 28.8379 22.6723 29.2276C23.6201 29.9886 24.5243 30.6712 25.3535 31.2732C25.8139 31.6069 26.276 31.9327 26.7398 32.2506C27.6052 31.3923 28.3079 30.3022 28.7696 28.9493C29.4726 26.9503 29.4726 24.9811 29.3553 22.9239H19.6649V26.6642Z" fill="black"/>
<path d="M55.8956 36.6894C56.2631 42.5425 52.0679 45.502 46.2956 45.502C41.1486 45.502 34.4694 43.3568 27.4881 39.4599C25.008 38.0737 22.6129 36.5401 20.3157 34.8673H20.3169C10.0177 27.3799 3.72791 18.7616 1.74683 12.8224C0.477072 9.01157 0.694926 5.78571 2.37841 3.49944C5.04103 -0.119915 10.553 -0.304346 14.9712 0.580967C-2.35924 -3.01155 -5.14838 10.6122 9.25502 26.1395C10.0533 31.7347 14.4943 34.6378 19.0453 34.8687C37.3803 48.618 57.2838 50.096 55.8956 36.6894Z" fill="black"/>
<path d="M30.582 34.6154H40.1844C44.3708 34.6154 46.5372 31.706 46.5666 28.1204C46.5666 26.2982 45.7759 24.77 44.1082 23.9178C45.1036 23.0947 45.7183 21.5958 45.7183 20.3615C45.7175 16.8064 42.8778 14.0429 39.3354 14.0429H30.5812L30.582 34.6154ZM35.6467 18.7451H38.9245C41.0323 18.7451 41.0323 22.1249 38.9539 22.1249H35.6467V18.7451ZM35.6467 26.4451H39.8039C41.9117 26.4451 41.9409 29.9425 39.8331 29.9425H35.6467V26.4451Z" fill="black"/>
<path d="M53.5317 41.4371C47.5217 49.6038 23.2519 39.5502 9.49543 23.3728C3.01115 15.751 0.311944 8.26803 3.31155 4.1911C7.67704 -1.73976 22.4576 1.78808 36.3266 12.0742C36.7379 12.3786 37.1437 12.6863 37.5439 12.9974C25.091 3.83365 12.005 0.542713 8.24446 5.65274C6.0805 8.59283 7.47078 13.6774 11.4004 19.2272C14.8794 24.142 19.7642 28.6537 24.6733 32.2179C40.0089 43.3343 55.0875 44.9514 54.5734 35.4053C54.9967 37.7966 54.6859 39.8704 53.5317 41.4371Z" fill="black"/>
<path d="M47.8267 14.1447H53.0922V34.5136H47.8267V14.1447Z" fill="black"/>
<path d="M65.1463 28C64.2967 28 63.5634 27.8613 62.9464 27.5839C62.3383 27.2975 61.8643 26.8859 61.5245 26.349C61.1936 25.8031 61.0103 25.1409 60.9745 24.3624C60.9655 23.9776 60.9611 23.5705 60.9611 23.1409C60.9611 22.7025 60.9655 22.2863 60.9745 21.8926C61.0103 21.132 61.1981 20.4877 61.5379 19.9597C61.8777 19.4318 62.3562 19.0291 62.9732 18.7517C63.5903 18.4743 64.3146 18.3356 65.1463 18.3356C65.817 18.3356 66.4117 18.4206 66.9304 18.5906C67.4491 18.7517 67.8828 18.9709 68.2316 19.2483C68.5893 19.5257 68.8576 19.83 69.0365 20.1611C69.2243 20.4922 69.3226 20.8188 69.3316 21.1409C69.3405 21.2215 69.3137 21.2886 69.2511 21.3423C69.1974 21.396 69.1303 21.4228 69.0499 21.4228H67.0914C66.993 21.4228 66.917 21.4094 66.8633 21.3825C66.8186 21.3468 66.7784 21.2975 66.7426 21.2349C66.68 21.1007 66.5861 20.962 66.4609 20.8188C66.3447 20.6667 66.1792 20.5369 65.9646 20.4295C65.7589 20.3221 65.4861 20.2685 65.1463 20.2685C64.6366 20.2685 64.2341 20.4027 63.939 20.6711C63.6529 20.9396 63.4964 21.3691 63.4695 21.9597C63.4427 22.7293 63.4427 23.5078 63.4695 24.2953C63.4964 24.9217 63.6618 25.3736 63.9659 25.651C64.2699 25.9284 64.6723 26.0671 65.1731 26.0671C65.513 26.0671 65.8126 26.0089 66.0719 25.8926C66.3402 25.7763 66.5503 25.5973 66.7024 25.3557C66.8544 25.1051 66.9304 24.7875 66.9304 24.4027V24.1477H65.6695C65.5711 24.1477 65.4861 24.1163 65.4146 24.0537C65.352 23.9821 65.3207 23.8971 65.3207 23.7987V22.8054C65.3207 22.7069 65.352 22.6264 65.4146 22.5638C65.4861 22.4922 65.5711 22.4564 65.6695 22.4564H69.0499C69.1482 22.4564 69.2287 22.4922 69.2913 22.5638C69.3539 22.6264 69.3852 22.7069 69.3852 22.8054V24.3356C69.3852 25.1051 69.2108 25.7629 68.8621 26.3087C68.5133 26.8546 68.017 27.2752 67.3731 27.5705C66.7381 27.8568 65.9959 28 65.1463 28Z" fill="black"/>
<path d="M71.112 27.8658C71.0136 27.8658 70.9331 27.8345 70.8705 27.7718C70.8079 27.7092 70.7766 27.6286 70.7766 27.5302V18.6711C70.7766 18.5727 70.8079 18.4922 70.8705 18.4295C70.9331 18.3669 71.0136 18.3356 71.112 18.3356H72.6949C72.7932 18.3356 72.8737 18.3669 72.9363 18.4295C72.9989 18.4922 73.0302 18.5727 73.0302 18.6711V27.5302C73.0302 27.6286 72.9989 27.7092 72.9363 27.7718C72.8737 27.8345 72.7932 27.8658 72.6949 27.8658H71.112Z" fill="black"/>
<path d="M77.9148 28C77.1636 28 76.5287 27.8792 76.01 27.6376C75.5002 27.396 75.1068 27.0515 74.8295 26.604C74.5612 26.1477 74.4092 25.6063 74.3734 24.9799C74.3645 24.8009 74.36 24.5996 74.36 24.3758C74.36 24.1432 74.3645 23.9418 74.3734 23.7718C74.4092 23.1365 74.5702 22.5951 74.8563 22.1476C75.1425 21.7002 75.5405 21.3557 76.0502 21.1141C76.5689 20.8725 77.1904 20.7517 77.9148 20.7517C78.6481 20.7517 79.2696 20.8725 79.7794 21.1141C80.2981 21.3557 80.7005 21.7002 80.9867 22.1476C81.2728 22.5951 81.4338 23.1365 81.4696 23.7718C81.4785 23.9418 81.483 24.1432 81.483 24.3758C81.483 24.5996 81.4785 24.8009 81.4696 24.9799C81.4338 25.6063 81.2773 26.1477 81.0001 26.604C80.7318 27.0515 80.3383 27.396 79.8196 27.6376C79.3099 27.8792 78.6749 28 77.9148 28ZM77.9148 26.3624C78.3172 26.3624 78.6079 26.2416 78.7867 26C78.9745 25.7584 79.0818 25.396 79.1087 24.9127C79.1176 24.7785 79.1221 24.5996 79.1221 24.3758C79.1221 24.1521 79.1176 23.9732 79.1087 23.8389C79.0818 23.3647 78.9745 23.0067 78.7867 22.7651C78.6079 22.5145 78.3172 22.3893 77.9148 22.3893C77.5213 22.3893 77.2307 22.5145 77.0429 22.7651C76.8551 23.0067 76.7522 23.3647 76.7343 23.8389C76.7254 23.9732 76.7209 24.1521 76.7209 24.3758C76.7209 24.5996 76.7254 24.7785 76.7343 24.9127C76.7522 25.396 76.8551 25.7584 77.0429 26C77.2307 26.2416 77.5213 26.3624 77.9148 26.3624Z" fill="black"/>
<path d="M87.068 28C86.5672 28 86.1469 27.915 85.8071 27.745C85.4762 27.5749 85.2035 27.3602 84.9888 27.1007V27.5302C84.9888 27.6286 84.9531 27.7092 84.8815 27.7718C84.8189 27.8345 84.7429 27.8658 84.6535 27.8658H83.1377C83.0393 27.8658 82.9588 27.8345 82.8962 27.7718C82.8336 27.7092 82.8023 27.6286 82.8023 27.5302V18.6711C82.8023 18.5727 82.8336 18.4922 82.8962 18.4295C82.9588 18.3669 83.0393 18.3356 83.1377 18.3356H84.7742C84.8726 18.3356 84.9531 18.3669 85.0157 18.4295C85.0783 18.4922 85.1096 18.5727 85.1096 18.6711V21.5436C85.3242 21.311 85.5925 21.123 85.9144 20.9799C86.2453 20.8277 86.6298 20.7517 87.068 20.7517C87.5152 20.7517 87.9087 20.8277 88.2485 20.9799C88.5973 21.123 88.8924 21.3333 89.1338 21.6107C89.3753 21.8881 89.5631 22.2192 89.6972 22.604C89.8314 22.9888 89.9074 23.4228 89.9253 23.906C89.9342 24.0761 89.9387 24.2327 89.9387 24.3758C89.9387 24.5101 89.9342 24.6667 89.9253 24.8456C89.9074 25.3468 89.8269 25.7942 89.6838 26.1879C89.5497 26.5727 89.3619 26.9038 89.1204 27.1812C88.879 27.4497 88.5883 27.6555 88.2485 27.7987C87.9087 27.9329 87.5152 28 87.068 28ZM86.3437 26.2013C86.6477 26.2013 86.8847 26.1387 87.0546 26.0134C87.2245 25.8881 87.3453 25.7181 87.4168 25.5034C87.4973 25.2886 87.5465 25.0515 87.5644 24.7919C87.5823 24.5145 87.5823 24.2371 87.5644 23.9597C87.5465 23.7002 87.4973 23.4631 87.4168 23.2483C87.3453 23.0336 87.2245 22.8635 87.0546 22.7383C86.8847 22.613 86.6477 22.5503 86.3437 22.5503C86.0664 22.5503 85.8384 22.613 85.6595 22.7383C85.4807 22.8546 85.3465 23.0112 85.2571 23.208C85.1677 23.396 85.1185 23.6018 85.1096 23.8255C85.1006 23.9955 85.0961 24.1611 85.0961 24.3221C85.0961 24.4832 85.1006 24.6532 85.1096 24.8322C85.1185 25.0738 85.1632 25.2975 85.2437 25.5034C85.3242 25.7092 85.4539 25.8792 85.6327 26.0134C85.8116 26.1387 86.0486 26.2013 86.3437 26.2013Z" fill="black"/>
<path d="M93.3574 28C92.8745 28 92.4408 27.9105 92.0563 27.7315C91.6807 27.5436 91.3811 27.2931 91.1575 26.9799C90.9339 26.6667 90.8221 26.3132 90.8221 25.9195C90.8221 25.2841 91.0815 24.783 91.6002 24.4161C92.1189 24.0403 92.8075 23.7852 93.666 23.651L95.3428 23.396V23.208C95.3428 22.8859 95.2757 22.6398 95.1415 22.4698C95.0074 22.2998 94.7615 22.2148 94.4037 22.2148C94.1534 22.2148 93.9477 22.264 93.7867 22.3624C93.6347 22.4608 93.5139 22.5951 93.4245 22.7651C93.344 22.8814 93.2322 22.9396 93.0892 22.9396H91.5868C91.4884 22.9396 91.4124 22.9128 91.3587 22.8591C91.3051 22.7964 91.2827 22.7248 91.2916 22.6443C91.2916 22.4832 91.3498 22.2998 91.466 22.094C91.5912 21.8792 91.779 21.6689 92.0294 21.4631C92.2798 21.2573 92.6018 21.0872 92.9953 20.953C93.3887 20.8188 93.8627 20.7517 94.4172 20.7517C94.9985 20.7517 95.4948 20.8188 95.9062 20.953C96.3175 21.0872 96.6484 21.2752 96.8988 21.5168C97.1581 21.7584 97.3504 22.0447 97.4756 22.3758C97.6008 22.698 97.6634 23.0559 97.6634 23.4497V27.5302C97.6634 27.6286 97.6276 27.7092 97.5561 27.7718C97.4935 27.8345 97.4175 27.8658 97.3281 27.8658H95.772C95.6736 27.8658 95.5931 27.8345 95.5305 27.7718C95.4679 27.7092 95.4367 27.6286 95.4367 27.5302V27.0604C95.3204 27.2304 95.1639 27.387 94.9671 27.5302C94.7704 27.6734 94.5379 27.7852 94.2696 27.8658C94.0103 27.9553 93.7062 28 93.3574 28ZM93.9879 26.4698C94.2472 26.4698 94.4798 26.4161 94.6855 26.3087C94.9001 26.1924 95.0655 26.0179 95.1818 25.7852C95.307 25.5436 95.3696 25.2438 95.3696 24.8859V24.698L94.2294 24.8993C93.8091 24.9709 93.5005 25.0828 93.3038 25.2349C93.116 25.3781 93.0221 25.5481 93.0221 25.745C93.0221 25.8971 93.0668 26.0268 93.1562 26.1342C93.2457 26.2416 93.3619 26.3266 93.505 26.3893C93.6481 26.443 93.8091 26.4698 93.9879 26.4698Z" fill="black"/>
<path d="M99.5125 27.8658C99.4141 27.8658 99.3336 27.8345 99.271 27.7718C99.2084 27.7092 99.1771 27.6286 99.1771 27.5302V18.6711C99.1771 18.5727 99.2084 18.4922 99.271 18.4295C99.3336 18.3669 99.4141 18.3356 99.5125 18.3356H101.095C101.194 18.3356 101.274 18.3669 101.337 18.4295C101.399 18.4922 101.431 18.5727 101.431 18.6711V27.5302C101.431 27.6286 101.399 27.7092 101.337 27.7718C101.274 27.8345 101.194 27.8658 101.095 27.8658H99.5125Z" fill="black"/>
<path d="M106.354 27.8658C106.256 27.8658 106.175 27.8345 106.113 27.7718C106.05 27.7092 106.019 27.6286 106.019 27.5302V18.8054C106.019 18.7069 106.05 18.6264 106.113 18.5638C106.175 18.5011 106.256 18.4698 106.354 18.4698H110.445C111.215 18.4698 111.845 18.5772 112.337 18.7919C112.829 19.0067 113.191 19.3154 113.423 19.7181C113.665 20.1119 113.786 20.5817 113.786 21.1275C113.786 21.4497 113.723 21.736 113.598 21.9866C113.482 22.2282 113.334 22.4295 113.155 22.5906C112.985 22.7517 112.824 22.868 112.672 22.9396C113.012 23.1007 113.312 23.3647 113.571 23.7315C113.839 24.0984 113.973 24.528 113.973 25.0201C113.973 25.6107 113.839 26.1208 113.571 26.5503C113.312 26.9709 112.927 27.2975 112.417 27.5302C111.917 27.7539 111.299 27.8658 110.566 27.8658H106.354ZM108.42 26.1208H110.298C110.682 26.1208 110.973 26.009 111.17 25.7852C111.367 25.5615 111.465 25.3065 111.465 25.0201C111.465 24.7069 111.362 24.443 111.156 24.2282C110.96 24.0134 110.673 23.906 110.298 23.906H108.42V26.1208ZM108.42 22.2013H110.177C110.544 22.2013 110.817 22.1074 110.995 21.9195C111.183 21.7315 111.277 21.4899 111.277 21.1946C111.277 20.9083 111.183 20.6756 110.995 20.4966C110.817 20.3087 110.544 20.2148 110.177 20.2148H108.42V22.2013Z" fill="black"/>
<path d="M117.878 28C117.369 28 116.912 27.8837 116.51 27.651C116.117 27.4183 115.808 27.0783 115.584 26.6309C115.361 26.1745 115.249 25.6197 115.249 24.9664V21.2215C115.249 21.123 115.28 21.0425 115.343 20.9799C115.406 20.9172 115.486 20.8859 115.584 20.8859H117.261C117.36 20.8859 117.44 20.9172 117.503 20.9799C117.565 21.0425 117.597 21.123 117.597 21.2215V24.8859C117.597 25.7629 117.99 26.2013 118.777 26.2013C119.144 26.2013 119.434 26.0895 119.649 25.8658C119.873 25.6331 119.984 25.3065 119.984 24.8859V21.2215C119.984 21.123 120.016 21.0425 120.078 20.9799C120.141 20.9172 120.221 20.8859 120.32 20.8859H121.996C122.095 20.8859 122.175 20.9172 122.238 20.9799C122.301 21.0425 122.332 21.123 122.332 21.2215V27.5302C122.332 27.6286 122.301 27.7092 122.238 27.7718C122.175 27.8345 122.095 27.8658 121.996 27.8658H120.44C120.351 27.8658 120.27 27.8345 120.199 27.7718C120.136 27.7092 120.105 27.6286 120.105 27.5302V27.0201C119.873 27.3423 119.568 27.5884 119.193 27.7584C118.826 27.9195 118.388 28 117.878 28Z" fill="black"/>
<path d="M126.78 28C126.199 28 125.703 27.9374 125.291 27.8121C124.889 27.6778 124.558 27.5168 124.299 27.3289C124.048 27.1409 123.86 26.9485 123.735 26.7517C123.61 26.5459 123.543 26.3714 123.534 26.2282C123.525 26.1298 123.556 26.0492 123.628 25.9866C123.7 25.915 123.776 25.8792 123.856 25.8792H125.385C125.412 25.8792 125.434 25.8837 125.452 25.8926C125.47 25.9016 125.497 25.9195 125.533 25.9463C125.649 26.009 125.765 26.0895 125.882 26.1879C125.998 26.2774 126.132 26.3579 126.284 26.4295C126.436 26.5011 126.619 26.5369 126.834 26.5369C127.084 26.5369 127.295 26.4877 127.464 26.3893C127.634 26.2908 127.719 26.1432 127.719 25.9463C127.719 25.8031 127.679 25.6868 127.599 25.5973C127.518 25.4989 127.353 25.4049 127.102 25.3154C126.861 25.2259 126.494 25.1365 126.002 25.047C125.537 24.9396 125.13 24.8009 124.782 24.6309C124.433 24.4519 124.165 24.2237 123.977 23.9463C123.789 23.66 123.695 23.3154 123.695 22.9128C123.695 22.5548 123.811 22.2103 124.044 21.8792C124.276 21.5481 124.616 21.2796 125.063 21.0738C125.51 20.8591 126.06 20.7517 126.713 20.7517C127.232 20.7517 127.679 20.8143 128.055 20.9396C128.439 21.0559 128.761 21.2081 129.02 21.396C129.289 21.5839 129.49 21.7763 129.624 21.9732C129.758 22.17 129.83 22.349 129.839 22.5101C129.848 22.5996 129.821 22.6801 129.758 22.7517C129.696 22.8143 129.624 22.8456 129.544 22.8456H128.149C128.113 22.8456 128.077 22.8412 128.041 22.8322C128.005 22.8143 127.974 22.7964 127.947 22.7785C127.84 22.7248 127.733 22.6532 127.625 22.5638C127.518 22.4743 127.393 22.3937 127.25 22.3221C127.107 22.2506 126.928 22.2148 126.713 22.2148C126.472 22.2148 126.284 22.2685 126.15 22.3758C126.016 22.4832 125.949 22.6219 125.949 22.7919C125.949 22.9083 125.984 23.0157 126.056 23.1141C126.136 23.2125 126.293 23.302 126.525 23.3826C126.767 23.4631 127.138 23.5526 127.639 23.651C128.256 23.7494 128.748 23.9105 129.114 24.1342C129.481 24.349 129.74 24.604 129.892 24.8993C130.044 25.1857 130.12 25.4899 130.12 25.8121C130.12 26.2416 129.991 26.6219 129.731 26.953C129.481 27.2841 129.105 27.5436 128.605 27.7315C128.104 27.9105 127.496 28 126.78 28Z" fill="black"/>
<path d="M131.66 27.8658C131.561 27.8658 131.481 27.8345 131.418 27.7718C131.355 27.7092 131.324 27.6286 131.324 27.5302V21.2215C131.324 21.123 131.355 21.0425 131.418 20.9799C131.481 20.9172 131.561 20.8859 131.66 20.8859H133.242C133.332 20.8859 133.408 20.9172 133.47 20.9799C133.542 21.0425 133.578 21.123 133.578 21.2215V27.5302C133.578 27.6286 133.542 27.7092 133.47 27.7718C133.408 27.8345 133.332 27.8658 133.242 27.8658H131.66ZM131.646 19.8792C131.548 19.8792 131.467 19.8479 131.405 19.7852C131.342 19.7226 131.311 19.6421 131.311 19.5436V18.349C131.311 18.2506 131.342 18.17 131.405 18.1074C131.467 18.0358 131.548 18 131.646 18H133.242C133.341 18 133.421 18.0358 133.484 18.1074C133.555 18.17 133.591 18.2506 133.591 18.349V19.5436C133.591 19.6421 133.555 19.7226 133.484 19.7852C133.421 19.8479 133.341 19.8792 133.242 19.8792H131.646Z" fill="black"/>
<path d="M135.904 27.8658C135.806 27.8658 135.725 27.8345 135.662 27.7718C135.6 27.7092 135.569 27.6286 135.569 27.5302V21.2215C135.569 21.123 135.6 21.0425 135.662 20.9799C135.725 20.9172 135.806 20.8859 135.904 20.8859H137.447C137.545 20.8859 137.625 20.9172 137.688 20.9799C137.751 21.0425 137.782 21.123 137.782 21.2215V21.7315C138.014 21.4541 138.318 21.2215 138.694 21.0336C139.07 20.8456 139.512 20.7517 140.022 20.7517C140.541 20.7517 140.997 20.868 141.39 21.1007C141.793 21.3333 142.106 21.6778 142.329 22.1342C142.562 22.5816 142.678 23.132 142.678 23.7852V27.5302C142.678 27.6286 142.642 27.7092 142.571 27.7718C142.508 27.8345 142.432 27.8658 142.343 27.8658H140.653C140.563 27.8658 140.483 27.8345 140.411 27.7718C140.348 27.7092 140.317 27.6286 140.317 27.5302V23.8658C140.317 23.4452 140.214 23.123 140.009 22.8993C139.812 22.6667 139.517 22.5503 139.123 22.5503C138.757 22.5503 138.462 22.6667 138.238 22.8993C138.023 23.123 137.916 23.4452 137.916 23.8658V27.5302C137.916 27.6286 137.88 27.7092 137.809 27.7718C137.746 27.8345 137.67 27.8658 137.581 27.8658H135.904Z" fill="black"/>
<path d="M147.395 28C146.339 28 145.499 27.7136 144.873 27.1409C144.247 26.5682 143.92 25.7181 143.893 24.5906C143.893 24.528 143.893 24.4474 143.893 24.349C143.893 24.2506 143.893 24.1745 143.893 24.1208C143.92 23.4139 144.077 22.8098 144.363 22.3087C144.658 21.7987 145.061 21.4139 145.57 21.1544C146.089 20.8859 146.693 20.7517 147.381 20.7517C148.168 20.7517 148.816 20.9083 149.326 21.2215C149.845 21.5347 150.234 21.9597 150.493 22.4966C150.753 23.0336 150.882 23.6465 150.882 24.3356V24.6577C150.882 24.7562 150.847 24.8367 150.775 24.8993C150.712 24.962 150.636 24.9933 150.547 24.9933H146.254C146.254 25.0022 146.254 25.0157 146.254 25.0336C146.254 25.0514 146.254 25.0694 146.254 25.0872C146.263 25.3468 146.308 25.5839 146.389 25.7987C146.469 26.0134 146.594 26.1834 146.764 26.3087C146.934 26.434 147.14 26.4966 147.381 26.4966C147.56 26.4966 147.708 26.4698 147.824 26.4161C147.949 26.3535 148.052 26.2864 148.132 26.2148C148.213 26.1342 148.275 26.0671 148.32 26.0134C148.401 25.9239 148.463 25.8702 148.508 25.8524C148.562 25.8255 148.642 25.8121 148.749 25.8121H150.413C150.502 25.8121 150.574 25.8389 150.627 25.8926C150.69 25.9374 150.717 26.0045 150.708 26.094C150.699 26.2461 150.623 26.4295 150.48 26.6443C150.337 26.8591 150.127 27.0738 149.849 27.2886C149.581 27.4944 149.241 27.6644 148.83 27.7987C148.419 27.9329 147.94 28 147.395 28ZM146.254 23.6644H148.521V23.6376C148.521 23.3512 148.477 23.1007 148.387 22.8859C148.307 22.6711 148.177 22.5056 147.998 22.3893C147.828 22.2729 147.623 22.2148 147.381 22.2148C147.14 22.2148 146.934 22.2729 146.764 22.3893C146.603 22.5056 146.478 22.6711 146.389 22.8859C146.299 23.1007 146.254 23.3512 146.254 23.6376V23.6644Z" fill="black"/>
<path d="M155.011 28C154.429 28 153.933 27.9374 153.522 27.8121C153.119 27.6778 152.788 27.5168 152.529 27.3289C152.278 27.1409 152.091 26.9485 151.965 26.7517C151.84 26.5459 151.773 26.3714 151.764 26.2282C151.755 26.1298 151.787 26.0492 151.858 25.9866C151.93 25.915 152.006 25.8792 152.086 25.8792H153.615C153.642 25.8792 153.665 25.8837 153.682 25.8926C153.7 25.9016 153.727 25.9195 153.763 25.9463C153.879 26.009 153.995 26.0895 154.112 26.1879C154.228 26.2774 154.362 26.3579 154.514 26.4295C154.666 26.5011 154.85 26.5369 155.064 26.5369C155.315 26.5369 155.525 26.4877 155.695 26.3893C155.865 26.2908 155.95 26.1432 155.95 25.9463C155.95 25.8031 155.909 25.6868 155.829 25.5973C155.748 25.4989 155.583 25.4049 155.332 25.3154C155.091 25.2259 154.724 25.1365 154.232 25.047C153.767 24.9396 153.361 24.8009 153.012 24.6309C152.663 24.4519 152.395 24.2237 152.207 23.9463C152.019 23.66 151.925 23.3154 151.925 22.9128C151.925 22.5548 152.041 22.2103 152.274 21.8792C152.507 21.5481 152.846 21.2796 153.293 21.0738C153.741 20.8591 154.291 20.7517 154.943 20.7517C155.462 20.7517 155.909 20.8143 156.285 20.9396C156.669 21.0559 156.991 21.2081 157.251 21.396C157.519 21.5839 157.72 21.7763 157.854 21.9732C157.988 22.17 158.06 22.349 158.069 22.5101C158.078 22.5996 158.051 22.6801 157.988 22.7517C157.926 22.8143 157.854 22.8456 157.774 22.8456H156.379C156.343 22.8456 156.307 22.8412 156.271 22.8322C156.236 22.8143 156.204 22.7964 156.178 22.7785C156.07 22.7248 155.963 22.6532 155.856 22.5638C155.748 22.4743 155.623 22.3937 155.48 22.3221C155.337 22.2506 155.158 22.2148 154.943 22.2148C154.702 22.2148 154.514 22.2685 154.38 22.3758C154.246 22.4832 154.179 22.6219 154.179 22.7919C154.179 22.9083 154.215 23.0157 154.286 23.1141C154.367 23.2125 154.523 23.302 154.756 23.3826C154.997 23.4631 155.368 23.5526 155.869 23.651C156.486 23.7494 156.978 23.9105 157.345 24.1342C157.711 24.349 157.971 24.604 158.123 24.8993C158.275 25.1857 158.351 25.4899 158.351 25.8121C158.351 26.2416 158.221 26.6219 157.962 26.953C157.711 27.2841 157.336 27.5436 156.835 27.7315C156.334 27.9105 155.726 28 155.011 28Z" fill="black"/>
<path d="M162.425 28C161.844 28 161.347 27.9374 160.936 27.8121C160.534 27.6778 160.203 27.5168 159.943 27.3289C159.693 27.1409 159.505 26.9485 159.38 26.7517C159.255 26.5459 159.188 26.3714 159.179 26.2282C159.17 26.1298 159.201 26.0492 159.273 25.9866C159.344 25.915 159.42 25.8792 159.501 25.8792H161.03C161.057 25.8792 161.079 25.8837 161.097 25.8926C161.115 25.9016 161.142 25.9195 161.178 25.9463C161.294 26.009 161.41 26.0895 161.526 26.1879C161.643 26.2774 161.777 26.3579 161.929 26.4295C162.081 26.5011 162.264 26.5369 162.479 26.5369C162.729 26.5369 162.939 26.4877 163.109 26.3893C163.279 26.2908 163.364 26.1432 163.364 25.9463C163.364 25.8031 163.324 25.6868 163.243 25.5973C163.163 25.4989 162.997 25.4049 162.747 25.3154C162.506 25.2259 162.139 25.1365 161.647 25.047C161.182 24.9396 160.775 24.8009 160.426 24.6309C160.078 24.4519 159.809 24.2237 159.621 23.9463C159.434 23.66 159.34 23.3154 159.34 22.9128C159.34 22.5548 159.456 22.2103 159.689 21.8792C159.921 21.5481 160.261 21.2796 160.708 21.0738C161.155 20.8591 161.705 20.7517 162.358 20.7517C162.877 20.7517 163.324 20.8143 163.699 20.9396C164.084 21.0559 164.406 21.2081 164.665 21.396C164.933 21.5839 165.135 21.7763 165.269 21.9732C165.403 22.17 165.475 22.349 165.483 22.5101C165.492 22.5996 165.466 22.6801 165.403 22.7517C165.34 22.8143 165.269 22.8456 165.188 22.8456H163.793C163.758 22.8456 163.722 22.8412 163.686 22.8322C163.65 22.8143 163.619 22.7964 163.592 22.7785C163.485 22.7248 163.377 22.6532 163.27 22.5638C163.163 22.4743 163.038 22.3937 162.895 22.3221C162.751 22.2506 162.573 22.2148 162.358 22.2148C162.117 22.2148 161.929 22.2685 161.795 22.3758C161.66 22.4832 161.593 22.6219 161.593 22.7919C161.593 22.9083 161.629 23.0157 161.701 23.1141C161.781 23.2125 161.938 23.302 162.17 23.3826C162.412 23.4631 162.783 23.5526 163.284 23.651C163.901 23.7494 164.392 23.9105 164.759 24.1342C165.126 24.349 165.385 24.604 165.537 24.8993C165.689 25.1857 165.765 25.4899 165.765 25.8121C165.765 26.2416 165.636 26.6219 165.376 26.953C165.126 27.2841 164.75 27.5436 164.249 27.7315C163.749 27.9105 163.14 28 162.425 28Z" fill="black"/>
<path d="M170.308 27.8658C170.209 27.8658 170.129 27.8345 170.066 27.7718C170.004 27.7092 169.972 27.6286 169.972 27.5302V18.8054C169.972 18.7069 170.004 18.6264 170.066 18.5638C170.129 18.5011 170.209 18.4698 170.308 18.4698H172.105C172.203 18.4698 172.284 18.5011 172.347 18.5638C172.409 18.6264 172.44 18.7069 172.44 18.8054V27.5302C172.44 27.6286 172.409 27.7092 172.347 27.7718C172.284 27.8345 172.203 27.8658 172.105 27.8658H170.308Z" fill="black"/>
<path d="M174.509 27.8658C174.411 27.8658 174.33 27.8345 174.268 27.7718C174.205 27.7092 174.174 27.6286 174.174 27.5302V21.2215C174.174 21.123 174.205 21.0425 174.268 20.9799C174.33 20.9172 174.411 20.8859 174.509 20.8859H176.052C176.15 20.8859 176.231 20.9172 176.293 20.9799C176.356 21.0425 176.387 21.123 176.387 21.2215V21.7315C176.62 21.4541 176.924 21.2215 177.299 21.0336C177.675 20.8456 178.118 20.7517 178.627 20.7517C179.146 20.7517 179.602 20.868 179.996 21.1007C180.398 21.3333 180.711 21.6778 180.935 22.1342C181.167 22.5816 181.283 23.132 181.283 23.7852V27.5302C181.283 27.6286 181.248 27.7092 181.176 27.7718C181.113 27.8345 181.037 27.8658 180.948 27.8658H179.258C179.168 27.8658 179.088 27.8345 179.016 27.7718C178.954 27.7092 178.922 27.6286 178.922 27.5302V23.8658C178.922 23.4452 178.82 23.123 178.614 22.8993C178.417 22.6667 178.122 22.5503 177.729 22.5503C177.362 22.5503 177.067 22.6667 176.843 22.8993C176.629 23.123 176.521 23.4452 176.521 23.8658V27.5302C176.521 27.6286 176.486 27.7092 176.414 27.7718C176.351 27.8345 176.275 27.8658 176.186 27.8658H174.509Z" fill="black"/>
<path d="M185.986 28C185.325 28 184.739 27.8792 184.229 27.6376C183.719 27.396 183.313 27.047 183.008 26.5906C182.713 26.1253 182.552 25.5705 182.526 24.9262C182.517 24.783 182.512 24.604 182.512 24.3893C182.512 24.1656 182.517 23.9821 182.526 23.8389C182.552 23.1857 182.713 22.6309 183.008 22.1745C183.304 21.7092 183.706 21.3557 184.216 21.1141C184.734 20.8725 185.325 20.7517 185.986 20.7517C186.603 20.7517 187.131 20.8412 187.569 21.0201C188.008 21.1902 188.365 21.4049 188.642 21.6644C188.92 21.9239 189.125 22.1924 189.26 22.4698C189.403 22.7383 189.479 22.9754 189.488 23.1812C189.497 23.2707 189.465 23.3512 189.394 23.4228C189.322 23.4855 189.242 23.5168 189.152 23.5168H187.449C187.35 23.5168 187.274 23.4944 187.221 23.4497C187.167 23.4049 187.118 23.3378 187.073 23.2483C186.966 22.9709 186.827 22.774 186.657 22.6577C186.496 22.5414 186.286 22.4832 186.027 22.4832C185.669 22.4832 185.392 22.5996 185.195 22.8322C185.007 23.0649 184.904 23.4228 184.886 23.906C184.878 24.264 184.878 24.5817 184.886 24.8591C184.904 25.3512 185.007 25.7092 185.195 25.9329C185.392 26.1566 185.669 26.2685 186.027 26.2685C186.304 26.2685 186.523 26.2103 186.684 26.094C186.845 25.9776 186.975 25.7808 187.073 25.5034C187.118 25.4139 187.167 25.3468 187.221 25.302C187.274 25.2573 187.35 25.2349 187.449 25.2349H189.152C189.242 25.2349 189.322 25.2707 189.394 25.3423C189.465 25.4049 189.497 25.481 189.488 25.5705C189.479 25.7226 189.434 25.9016 189.353 26.1074C189.273 26.3042 189.148 26.5145 188.978 26.7383C188.808 26.962 188.584 27.1723 188.307 27.3691C188.039 27.557 187.712 27.7092 187.328 27.8255C186.943 27.9418 186.496 28 185.986 28Z" fill="black"/>
<path d="M190.961 27.8658C190.863 27.8658 190.782 27.8345 190.72 27.7718C190.657 27.7092 190.626 27.6286 190.626 27.5302V25.8255C190.626 25.736 190.657 25.66 190.72 25.5973C190.782 25.5257 190.863 25.4899 190.961 25.4899H192.651C192.75 25.4899 192.83 25.5257 192.893 25.5973C192.964 25.66 193 25.736 193 25.8255V27.5302C193 27.6286 192.964 27.7092 192.893 27.7718C192.83 27.8345 192.75 27.8658 192.651 27.8658H190.961Z" fill="black"/>
</svg>
